<?xml version="1.0" encoding="UTF-8" standalone="no"?>
<svg
   xmlns:dc="http://purl.org/dc/elements/1.1/"
   xmlns:cc="http://creativecommons.org/ns#"
   xmlns:rdf="http://www.w3.org/1999/02/22-rdf-syntax-ns#"
   xmlns:svg="http://www.w3.org/2000/svg"
   xmlns="http://www.w3.org/2000/svg"
   id="svg4631"
   version="1.1"
   viewBox="0 0 67.73333 67.733337"
   height="67.733337mm"
   width="67.73333mm">
  <defs
     id="defs4625" />
  <metadata
     id="metadata4628">
    <rdf:RDF>
      <cc:Work
         rdf:about="">
        <dc:format>image/svg+xml</dc:format>
        <dc:type
           rdf:resource="http://purl.org/dc/dcmitype/StillImage" />
        <dc:title></dc:title>
      </cc:Work>
    </rdf:RDF>
  </metadata>
  <g
     transform="translate(-56.630079,-25.164533)"
     id="layer1">
    <g
       id="g846">
      <g
         id="g5941"
         style="stroke:#000000;stroke-opacity:1"
         transform="matrix(1.0485466,0,0,1.0483611,-14.134036,-18.300162)">
        <circle
           style="fill:none;fill-opacity:1;stroke:#000000;stroke-width:2.57851672;stroke-linecap:round;stroke-linejoin:round;stroke-miterlimit:4;stroke-dasharray:none;stroke-opacity:1"
           id="circle5222"
           cx="93.740402"
           cy="79.815849"
           r="24.963335" />
        <g
           transform="matrix(0.97455758,0,0,0.97455758,14.383605,-3.5525124)"
           id="g5220"
           style="stroke:#000000;stroke-opacity:1">
          <ellipse
             style="fill:none;fill-opacity:0.69019608;stroke:#000000;stroke-width:2.64583325;stroke-linecap:round;stroke-linejoin:round;stroke-miterlimit:4;stroke-dasharray:none;stroke-opacity:1"
             id="path5186"
             cx="81.396225"
             cy="73.058655"
             rx="6.5100336"
             ry="6.411397" />
          <path
             style="fill:none;stroke:#000000;stroke-width:2.8962419;stroke-linecap:butt;stroke-linejoin:miter;stroke-miterlimit:4;stroke-dasharray:none;stroke-opacity:1"
             d="m 67.357226,107.15778 c 0,0 -2.697959,-17.68416 2.649764,-22.770343 5.748565,-5.467421 17.331489,-5.958278 23.090416,-0.193092 5.130003,5.135579 2.309042,23.074645 2.309042,23.074645"
             id="path5188" />
        </g>
      </g>
      <g
         id="g867"
         transform="matrix(0.7039512,0,0,0.71352246,26.380999,10.118301)"
         style="stroke:#000000;stroke-opacity:1">
        <path
           id="path5419"
           d="m 107.89626,22.15831 c 0.96772,-1.245609 28.18418,-1.609919 30.2241,0.02746 1.42257,1.141853 1.42867,7.648126 -0.004,8.425359 -2.83276,1.535958 -27.92999,1.144389 -30.14045,-0.01885 -1.40845,-0.741186 -1.13826,-7.070358 -0.0789,-8.433967 z"
           style="fill:#000000;fill-opacity:1;stroke:#000000;stroke-width:0;stroke-linecap:butt;stroke-linejoin:miter;stroke-miterlimit:4;stroke-dasharray:none;stroke-opacity:1" />
        <circle
           transform="rotate(52.352102)"
           style="display:inline;fill:#ffffff;fill-opacity:1;stroke:#000000;stroke-width:0;stroke-linecap:round;stroke-linejoin:round;stroke-miterlimit:4;stroke-dasharray:none;stroke-opacity:1"
           id="circle5222-3-4-8-6"
           cx="89.601364"
           cy="-73.003426"
           r="2.3030396" />
      </g>
      <g
         id="g859"
         transform="matrix(0.7039512,0,0,0.71352246,1.3169417,2.9500925)"
         style="stroke:#000000;stroke-opacity:1">
        <path
           id="path5419-53"
           d="m 143.50107,50.818192 c 0.96772,-1.245609 28.18419,-1.609919 30.22411,0.02746 1.42257,1.141853 1.42868,7.648125 -0.004,8.425359 -2.83276,1.535958 -27.92999,1.144389 -30.14045,-0.01886 -1.40845,-0.741186 -1.13826,-7.070358 -0.0789,-8.433968 z"
           style="fill:#000000;fill-opacity:1;stroke:#000000;stroke-width:0;stroke-linecap:butt;stroke-linejoin:miter;stroke-miterlimit:4;stroke-dasharray:none;stroke-opacity:1" />
        <circle
           transform="rotate(52.352102)"
           style="display:inline;fill:#ffffff;fill-opacity:1;stroke:#000000;stroke-width:0;stroke-linecap:round;stroke-linejoin:round;stroke-miterlimit:4;stroke-dasharray:none;stroke-opacity:1"
           id="circle5222-3-4-8-6-9"
           cx="134.04135"
           cy="-83.688919"
           r="2.3030396" />
      </g>
      <g
         id="g855"
         transform="matrix(0.7039512,0,0,0.71352246,72.034335,22.545632)"
         style="stroke:#000000;stroke-opacity:1">
        <path
           id="path5419-8"
           d="m 43.04344,41.968751 c 0.967719,-1.24561 28.184183,-1.609919 30.224102,0.02746 1.422574,1.141853 1.42868,7.648126 -0.0043,8.425359 -2.832763,1.535958 -27.929994,1.144389 -30.140453,-0.01886 -1.408451,-0.741186 -1.13826,-7.070358 -0.07887,-8.433968 z"
           style="fill:#000000;fill-opacity:1;stroke:#000000;stroke-width:0;stroke-linecap:butt;stroke-linejoin:miter;stroke-miterlimit:4;stroke-dasharray:none;stroke-opacity:1" />
        <circle
           transform="rotate(52.352102)"
           style="display:inline;fill:#ffffff;fill-opacity:1;stroke:#000000;stroke-width:0;stroke-linecap:round;stroke-linejoin:round;stroke-miterlimit:4;stroke-dasharray:none;stroke-opacity:1"
           id="circle5222-3-4-8-6-5"
           cx="65.674286"
           cy="-9.5539484"
           r="2.3030396" />
      </g>
      <g
         id="g897"
         transform="matrix(0.7039512,0,0,0.71352246,7.2753677,0.88001058)"
         style="stroke:#000000;stroke-opacity:1">
        <path
           id="path5419-4"
           d="m 135.03681,90.946709 c 0.96772,-1.245615 28.18419,-1.609919 30.22411,0.02747 1.42257,1.141845 1.42868,7.648118 -0.004,8.425359 -2.83276,1.535962 -27.92999,1.144392 -30.14045,-0.01889 -1.40845,-0.741194 -1.13826,-7.07036 -0.0789,-8.433976 z"
           style="fill:#000000;fill-opacity:1;stroke:#000000;stroke-width:0;stroke-linecap:butt;stroke-linejoin:miter;stroke-miterlimit:4;stroke-dasharray:none;stroke-opacity:1" />
        <circle
           transform="rotate(52.352102)"
           style="display:inline;fill:#ffffff;fill-opacity:1;stroke:#000000;stroke-width:0;stroke-linecap:round;stroke-linejoin:round;stroke-miterlimit:4;stroke-dasharray:none;stroke-opacity:1"
           id="circle5222-3-4-8-6-01"
           cx="160.64424"
           cy="-52.476307"
           r="2.3030396" />
      </g>
    </g>
  </g>
</svg>
