<?xml version="1.0" encoding="UTF-8" standalone="no"?>
<svg
   xmlns:dc="http://purl.org/dc/elements/1.1/"
   xmlns:cc="http://creativecommons.org/ns#"
   xmlns:rdf="http://www.w3.org/1999/02/22-rdf-syntax-ns#"
   xmlns:svg="http://www.w3.org/2000/svg"
   xmlns="http://www.w3.org/2000/svg"
   id="svg4631"
   version="1.1"
   viewBox="0 0 132.63733 85.425339"
   height="85.425339mm"
   width="132.63733mm">
  <defs
     id="defs4625" />
  <metadata
     id="metadata4628">
    <rdf:RDF>
      <cc:Work
         rdf:about="">
        <dc:format>image/svg+xml</dc:format>
        <dc:type
           rdf:resource="http://purl.org/dc/dcmitype/StillImage" />
        <dc:title></dc:title>
      </cc:Work>
    </rdf:RDF>
  </metadata>
  <g
     transform="translate(-42.156536,-21.087257)"
     id="layer1">
    <path
       id="path5232"
       d="m 130.29182,60.031652 1.19097,-0.345812 15.50167,-4.005988"
       style="display:inline;opacity:0.27000002;fill:#7e7e7e;fill-opacity:0.27058824;stroke:#000000;stroke-width:2.77409935;stroke-linecap:butt;stroke-linejoin:miter;stroke-miterlimit:4;stroke-dasharray:none;stroke-dashoffset:11.64166641;stroke-opacity:0.07843137" />
    <path
       id="path5274"
       d="m 110.97332,27.225656 -8.08207,4.343108 0.13399,7.968762"
       style="display:inline;opacity:0.27000002;fill:none;stroke:#000000;stroke-width:3.03218198;stroke-linecap:butt;stroke-linejoin:miter;stroke-miterlimit:4;stroke-dasharray:none;stroke-dashoffset:11.64166641;stroke-opacity:0.07843137" />
    <path
       id="path5320"
       d="m 80.751597,84.655754 -6.59197,4.936269 -0.09903,6.418629"
       style="display:inline;opacity:0.27000002;fill:none;stroke:#000000;stroke-width:2.35006523;stroke-linecap:butt;stroke-linejoin:miter;stroke-miterlimit:4;stroke-dasharray:none;stroke-dashoffset:11.64166641;stroke-opacity:0.07843137" />
    <path
       id="path5407"
       d="m 67.790351,51.177613 -5.354901,0.256388 14.262835,6.628149 0.900129,-2.245103 z"
       style="color:#000000;font-style:normal;font-variant:normal;font-weight:normal;font-stretch:normal;font-size:medium;line-height:normal;font-family:sans-serif;font-variant-ligatures:normal;font-variant-position:normal;font-variant-caps:normal;font-variant-numeric:normal;font-variant-alternates:normal;font-feature-settings:normal;text-indent:0;text-align:start;text-decoration:none;text-decoration-line:none;text-decoration-style:solid;text-decoration-color:#000000;letter-spacing:normal;word-spacing:normal;text-transform:none;writing-mode:lr-tb;direction:ltr;text-orientation:mixed;dominant-baseline:auto;baseline-shift:baseline;text-anchor:start;white-space:normal;shape-padding:0;clip-rule:nonzero;display:inline;overflow:visible;visibility:visible;opacity:0.27000002;isolation:auto;mix-blend-mode:normal;color-interpolation:sRGB;color-interpolation-filters:linearRGB;solid-color:#000000;solid-opacity:1;vector-effect:none;fill:#000000;fill-opacity:0.09019608;fill-rule:nonzero;stroke:none;stroke-width:2.49875426;stroke-linecap:butt;stroke-linejoin:miter;stroke-miterlimit:4;stroke-dasharray:none;stroke-dashoffset:11.64166641;stroke-opacity:1;color-rendering:auto;image-rendering:auto;shape-rendering:auto;text-rendering:auto;enable-background:accumulate" />
    <path
       id="path5419"
       d="m 107.89626,22.15831 c 0.96772,-1.245609 28.18418,-1.609919 30.2241,0.02746 1.42257,1.141853 1.42867,7.648126 -0.004,8.425359 -2.83276,1.535958 -27.92999,1.144389 -30.14045,-0.01885 -1.40845,-0.741186 -1.13826,-7.070358 -0.0789,-8.433967 z"
       style="opacity:0.27000002;fill:#7e7e7e;fill-opacity:1;stroke:#402b50;stroke-width:0;stroke-linecap:butt;stroke-linejoin:miter;stroke-miterlimit:4;stroke-dasharray:none;stroke-opacity:1" />
    <circle
       transform="rotate(52.352102)"
       style="display:inline;opacity:0.27000002;fill:#ffffff;fill-opacity:1;stroke:none;stroke-width:0;stroke-linecap:round;stroke-linejoin:round;stroke-miterlimit:4;stroke-dasharray:none;stroke-opacity:1"
       id="circle5222-3-4-8-6"
       cx="89.601364"
       cy="-73.003426"
       r="2.3030396" />
    <circle
       style="opacity:0.27000002;fill:none;fill-opacity:1;stroke:#402b50;stroke-width:2.76706266;stroke-linecap:round;stroke-linejoin:round;stroke-miterlimit:4;stroke-dasharray:none;stroke-opacity:1"
       id="circle5222"
       cx="103.19092"
       cy="67.642242"
       r="26.788702" />
    <g
       transform="matrix(1.0458191,0,0,1.0458191,18.031399,-21.822169)"
       id="g5220"
       style="opacity:0.27000002;stroke:#000000;stroke-opacity:0.07843137">
      <ellipse
         style="fill:none;fill-opacity:0.69019608;stroke:#3f2c51;stroke-width:2.64583325;stroke-linecap:round;stroke-linejoin:round;stroke-miterlimit:4;stroke-dasharray:none;stroke-opacity:1"
         id="path5186"
         ry="6.411397"
         rx="6.5100336"
         cy="73.058655"
         cx="81.396225" />
      <path
         id="path5188"
         d="m 81.564453,78.855469 c -4.636099,0.01101 -9.323384,1.409151 -12.554687,4.482422 -3.369279,3.204497 -3.787427,9.159173 -3.78125,14.34375 0.0062,5.184579 0.340129,6.320729 0.340129,6.320729 0.786062,0.63343 2.250982,1.66691 3.11979,2.23828 0,0 -0.557563,-3.63387 -0.563435,-8.562916 -0.0059,-4.929049 0.902415,-10.358549 2.880859,-12.240234 2.517262,-2.394151 6.519483,-3.675941 10.564453,-3.685547 4.044971,-0.0096 8.05985,1.258686 10.554688,3.515625 2.016909,1.824584 2.810323,6.897443 2.675781,11.658203 -0.134541,4.760759 -0.963194,9.105349 -1.042969,9.511719 l 0.08697,-0.0198 c -0.86993,0.65582 2.230462,-1.47737 2.72321,-1.83846 v 0 c 0,0 0.117243,-0.0718 0.122543,-0.0988 l 0.494424,-0.4092 c 0.09746,-0.49652 0.367875,-2.02186 0.510351,-7.063408 C 97.837824,91.964838 97.500019,86.225559 94.068353,83.121124 90.8552,80.214364 86.200546,78.844489 81.564447,78.855499 Z"
         style="color:#000000;font-style:normal;font-variant:normal;font-weight:normal;font-stretch:normal;font-size:medium;line-height:normal;font-family:sans-serif;font-variant-ligatures:normal;font-variant-position:normal;font-variant-caps:normal;font-variant-numeric:normal;font-variant-alternates:normal;font-feature-settings:normal;text-indent:0;text-align:start;text-decoration:none;text-decoration-line:none;text-decoration-style:solid;text-decoration-color:#000000;letter-spacing:normal;word-spacing:normal;text-transform:none;writing-mode:lr-tb;direction:ltr;text-orientation:mixed;dominant-baseline:auto;baseline-shift:baseline;text-anchor:start;white-space:normal;shape-padding:0;clip-rule:nonzero;display:inline;overflow:visible;visibility:visible;opacity:1;isolation:auto;mix-blend-mode:normal;color-interpolation:sRGB;color-interpolation-filters:linearRGB;solid-color:#000000;solid-opacity:1;vector-effect:none;fill:#402b50;fill-opacity:1;fill-rule:nonzero;stroke:none;stroke-width:2.8962419;stroke-linecap:butt;stroke-linejoin:miter;stroke-miterlimit:4;stroke-dasharray:none;stroke-dashoffset:0;stroke-opacity:1;color-rendering:auto;image-rendering:auto;shape-rendering:auto;text-rendering:auto;enable-background:accumulate" />
    </g>
    <path
       id="path5419-53"
       d="m 143.50107,50.818192 c 0.96772,-1.245609 28.18419,-1.609919 30.22411,0.02746 1.42257,1.141853 1.42868,7.648125 -0.004,8.425359 -2.83276,1.535958 -27.92999,1.144389 -30.14045,-0.01886 -1.40845,-0.741186 -1.13826,-7.070358 -0.0789,-8.433968 z"
       style="opacity:0.27000002;fill:#7f7f7f;fill-opacity:1;stroke:#402b50;stroke-width:0;stroke-linecap:butt;stroke-linejoin:miter;stroke-miterlimit:4;stroke-dasharray:none;stroke-opacity:1" />
    <circle
       transform="rotate(52.352102)"
       style="display:inline;opacity:0.27000002;fill:#ffffff;fill-opacity:1;stroke:none;stroke-width:0;stroke-linecap:round;stroke-linejoin:round;stroke-miterlimit:4;stroke-dasharray:none;stroke-opacity:1"
       id="circle5222-3-4-8-6-9"
       cx="134.04135"
       cy="-83.688919"
       r="2.3030396" />
    <path
       id="path5419-8"
       d="m 43.04344,41.968751 c 0.967719,-1.24561 28.184183,-1.609919 30.224102,0.02746 1.422574,1.141853 1.42868,7.648126 -0.0043,8.425359 -2.832763,1.535958 -27.929994,1.144389 -30.140453,-0.01886 -1.408451,-0.741186 -1.13826,-7.070358 -0.07887,-8.433968 z"
       style="opacity:0.27000002;fill:#808080;fill-opacity:1;stroke:#402b50;stroke-width:0;stroke-linecap:butt;stroke-linejoin:miter;stroke-miterlimit:4;stroke-dasharray:none;stroke-opacity:1" />
    <circle
       transform="rotate(52.352102)"
       style="display:inline;opacity:0.27000002;fill:#ffffff;fill-opacity:1;stroke:none;stroke-width:0;stroke-linecap:round;stroke-linejoin:round;stroke-miterlimit:4;stroke-dasharray:none;stroke-opacity:1"
       id="circle5222-3-4-8-6-5"
       cx="65.674286"
       cy="-9.5539484"
       r="2.3030396" />
    <path
       id="path5419-05"
       d="m 56.246192,97.051206 c 0.96772,-1.245616 28.184184,-1.609919 30.224103,0.02747 1.422574,1.141844 1.42868,7.648124 -0.0043,8.425364 -2.832763,1.53596 -27.929994,1.14438 -30.140453,-0.0189 -1.408451,-0.74119 -1.138261,-7.070362 -0.07887,-8.433968 z"
       style="opacity:0.27000002;fill:#808080;fill-opacity:1;stroke:#402b50;stroke-width:0;stroke-linecap:butt;stroke-linejoin:miter;stroke-miterlimit:4;stroke-dasharray:none;stroke-opacity:1" />
    <circle
       transform="rotate(52.352102)"
       style="display:inline;opacity:0.27000002;fill:#ffffff;fill-opacity:1;stroke:none;stroke-width:0;stroke-linecap:round;stroke-linejoin:round;stroke-miterlimit:4;stroke-dasharray:none;stroke-opacity:1"
       id="circle5222-3-4-8-6-0"
       cx="117.35177"
       cy="13.637149"
       r="2.3030396" />
    <path
       id="path5419-4"
       d="m 135.03681,90.946709 c 0.96772,-1.245615 28.18419,-1.609919 30.22411,0.02747 1.42257,1.141845 1.42868,7.648118 -0.004,8.425359 -2.83276,1.535962 -27.92999,1.144392 -30.14045,-0.01889 -1.40845,-0.741194 -1.13826,-7.07036 -0.0789,-8.433976 z"
       style="opacity:0.27000002;fill:#808080;fill-opacity:1;stroke:#402b50;stroke-width:0;stroke-linecap:butt;stroke-linejoin:miter;stroke-miterlimit:4;stroke-dasharray:none;stroke-opacity:1" />
    <circle
       transform="rotate(52.352102)"
       style="display:inline;opacity:0.27000002;fill:#ffffff;fill-opacity:1;stroke:none;stroke-width:0;stroke-linecap:round;stroke-linejoin:round;stroke-miterlimit:4;stroke-dasharray:none;stroke-opacity:1"
       id="circle5222-3-4-8-6-01"
       cx="160.64424"
       cy="-52.476307"
       r="2.3030396" />
    <path
       id="path5274-4"
       d="m 116.40063,91.114953 4.45604,5.614869 13.6068,-0.01001"
       style="display:inline;opacity:0.27000002;fill:none;stroke:#000000;stroke-width:3.03218198;stroke-linecap:butt;stroke-linejoin:miter;stroke-miterlimit:4;stroke-dasharray:none;stroke-dashoffset:11.64166641;stroke-opacity:0.07843137" />
  </g>
</svg>
