<?xml version="1.0" encoding="UTF-8" standalone="no"?>
<svg
   xmlns:dc="http://purl.org/dc/elements/1.1/"
   xmlns:cc="http://creativecommons.org/ns#"
   xmlns:rdf="http://www.w3.org/1999/02/22-rdf-syntax-ns#"
   xmlns:svg="http://www.w3.org/2000/svg"
   xmlns="http://www.w3.org/2000/svg"
   id="svg4631"
   version="1.1"
   viewBox="0 0 67.73333 67.733337"
   height="67.733337mm"
   width="67.73333mm">
  <defs
     id="defs4625" />
  <metadata
     id="metadata4628">
    <rdf:RDF>
      <cc:Work
         rdf:about="">
        <dc:format>image/svg+xml</dc:format>
        <dc:type
           rdf:resource="http://purl.org/dc/dcmitype/StillImage" />
        <dc:title></dc:title>
      </cc:Work>
    </rdf:RDF>
  </metadata>
  <g
     transform="translate(-56.630079,-25.164533)"
     id="layer1">
    <g
       id="g913">
      <g
         id="g893">
        <ellipse
           ry="26.170589"
           rx="26.17522"
           style="fill:none;fill-opacity:1;stroke:#ffffff;stroke-width:2.70345569;stroke-linecap:round;stroke-linejoin:round;stroke-miterlimit:4;stroke-dasharray:none;stroke-opacity:1"
           id="circle5222"
           cx="84.157143"
           cy="65.375671" />
        <g
           transform="matrix(1.021869,0,0,1.0216883,0.94784412,-22.024478)"
           id="g5220"
           style="stroke:#ffffff;stroke-opacity:1">
          <ellipse
             style="fill:none;fill-opacity:0.69019608;stroke:#ffffff;stroke-width:2.64583325;stroke-linecap:round;stroke-linejoin:round;stroke-miterlimit:4;stroke-dasharray:none;stroke-opacity:1"
             id="path5186"
             cx="81.396225"
             cy="73.058655"
             rx="6.5100336"
             ry="6.411397" />
          <path
             style="fill:none;stroke:#ffffff;stroke-width:2.8962419;stroke-linecap:butt;stroke-linejoin:miter;stroke-miterlimit:4;stroke-dasharray:none;stroke-opacity:1"
             d="m 67.357226,107.15778 c 0,0 -2.697959,-17.68416 2.649764,-22.770343 5.748565,-5.467421 17.331489,-5.958278 23.090416,-0.193092 5.130003,5.135579 2.309042,23.074645 2.309042,23.074645"
             id="path5188" />
        </g>
      </g>
      <g
         id="g883">
        <g
           id="g851">
          <path
             style="fill:#ffffff;fill-opacity:1;stroke:#000000;stroke-width:0;stroke-linecap:butt;stroke-linejoin:miter;stroke-miterlimit:4;stroke-dasharray:none;stroke-opacity:1"
             d="m 102.3347,25.928753 c 0.68123,-0.88877 19.84029,-1.148714 21.27629,0.01959 1.00142,0.814738 1.00572,5.45711 -0.003,6.011683 -1.99413,1.095941 -19.66135,0.816547 -21.21741,-0.01345 -0.99148,-0.528853 -0.80128,-5.044859 -0.0555,-6.017825 z"
             id="path5419" />
          <ellipse
             cy="-66.518486"
             cx="87.836922"
             id="circle5222-3-4-8-6"
             style="display:inline;fill:#000000;fill-opacity:1;stroke:#000000;stroke-width:0;stroke-linecap:round;stroke-linejoin:round;stroke-miterlimit:4;stroke-dasharray:none;stroke-opacity:1"
             transform="matrix(0.605632,0.79574486,-0.78776629,0.61597425,0,0)"
             rx="1.6350813"
             ry="1.6294862" />
        </g>
        <g
           id="g861">
          <path
             style="fill:#ffffff;fill-opacity:1;stroke:#000000;stroke-width:0;stroke-linecap:butt;stroke-linejoin:miter;stroke-miterlimit:4;stroke-dasharray:none;stroke-opacity:1"
             d="m 102.33469,39.210014 c 0.68123,-0.88877 19.8403,-1.148713 21.2763,0.01959 1.00142,0.814738 1.00572,5.457109 -0.003,6.011683 -1.99412,1.095941 -19.66135,0.816547 -21.2174,-0.01346 -0.99148,-0.528853 -0.80128,-5.044859 -0.0555,-6.017826 z"
             id="path5419-53" />
          <ellipse
             cy="-58.474243"
             cx="98.300339"
             id="circle5222-3-4-8-6-9"
             style="display:inline;fill:#000000;fill-opacity:1;stroke:#000000;stroke-width:0;stroke-linecap:round;stroke-linejoin:round;stroke-miterlimit:4;stroke-dasharray:none;stroke-opacity:1"
             transform="matrix(0.605632,0.79574486,-0.78776629,0.61597425,0,0)"
             rx="1.6350813"
             ry="1.6294862" />
        </g>
        <g
           id="g865">
          <path
             style="fill:#ffffff;fill-opacity:1;stroke:#000000;stroke-width:0;stroke-linecap:butt;stroke-linejoin:miter;stroke-miterlimit:4;stroke-dasharray:none;stroke-opacity:1"
             d="m 102.33482,52.491278 c 0.68122,-0.88877 19.84029,-1.148713 21.27629,0.01959 1.00142,0.814738 1.00572,5.457109 -0.003,6.011683 -1.99412,1.09594 -19.66135,0.816547 -21.21741,-0.01346 -0.99148,-0.528853 -0.80128,-5.04486 -0.0555,-6.017826 z"
             id="path5419-8" />
          <ellipse
             cy="-50.430096"
             cx="108.76384"
             id="circle5222-3-4-8-6-5"
             style="display:inline;fill:#000000;fill-opacity:1;stroke:#000000;stroke-width:0;stroke-linecap:round;stroke-linejoin:round;stroke-miterlimit:4;stroke-dasharray:none;stroke-opacity:1"
             transform="matrix(0.605632,0.79574486,-0.78776629,0.61597425,0,0)"
             rx="1.6350813"
             ry="1.6294862" />
        </g>
        <g
           id="g869">
          <path
             style="fill:#ffffff;fill-opacity:1;stroke:#000000;stroke-width:0;stroke-linecap:butt;stroke-linejoin:miter;stroke-miterlimit:4;stroke-dasharray:none;stroke-opacity:1"
             d="m 102.33469,65.77253 c 0.68123,-0.888774 19.8403,-1.148713 21.2763,0.0196 1.00142,0.814732 1.00572,5.457104 -0.003,6.011682 -1.99412,1.095944 -19.66135,0.81655 -21.2174,-0.01348 -0.99148,-0.528859 -0.80128,-5.044861 -0.0555,-6.017831 z"
             id="path5419-4" />
          <ellipse
             cy="-42.385765"
             cx="119.22718"
             id="circle5222-3-4-8-6-01"
             style="display:inline;fill:#000000;fill-opacity:1;stroke:#000000;stroke-width:0;stroke-linecap:round;stroke-linejoin:round;stroke-miterlimit:4;stroke-dasharray:none;stroke-opacity:1"
             transform="matrix(0.605632,0.79574486,-0.78776629,0.61597425,0,0)"
             rx="1.6350813"
             ry="1.6294862" />
        </g>
      </g>
    </g>
  </g>
</svg>
