<?xml version="1.0" encoding="UTF-8" standalone="no"?>
<svg
   xmlns:dc="http://purl.org/dc/elements/1.1/"
   xmlns:cc="http://creativecommons.org/ns#"
   xmlns:rdf="http://www.w3.org/1999/02/22-rdf-syntax-ns#"
   xmlns:svg="http://www.w3.org/2000/svg"
   xmlns="http://www.w3.org/2000/svg"
   xml:space="preserve"
   width="618.40204"
   viewBox="0 0 618.40204 701.41516"
   version="1.1"
   id="Layer_1"
   height="701.41516"><metadata
     id="metadata9"><rdf:RDF><cc:Work
         rdf:about=""><dc:format>image/svg+xml</dc:format><dc:type
           rdf:resource="http://purl.org/dc/dcmitype/StillImage" /><dc:title></dc:title></cc:Work></rdf:RDF></metadata><defs
     id="defs7" /><g
     transform="translate(120.94654,267.9322)"
     id="g908"><g
       id="g900"
       transform="translate(28.055437)"><path
         id="path2"
         d="m 233.58475,-115.4322 h -15.2 c -12.4,0 -22.8,-10.7 -22.8,-23.4 0,-6.4 2.7,-12.2 7.5,-16.5 l 9.8,-9.6 c 9.7,-9.6 9.7,-25.3 0,-34.9 l -22.3,-22.1 c -4.4,-4.4 -10.9,-7 -17.5,-7 -6.6,0 -13,2.6 -17.5,7 l -9.4,9.4 c -4.5,5 -10.5,7.7 -17,7.7 -12.8,0 -23.5,-10.4 -23.5,-22.7 v -15.3 c 0,-13.5 -10.900004,-25.1 -24.500004,-25.1 h -30.4 c -13.6,0 -24.4,11.5 -24.4,25.1 v 15.2 c 0,12.3 -10.7,22.7 -23.5000002,22.7 -6.4,0 -12.3,-2.7 -16.5999998,-7.4 l -9.7,-9.6 c -4.4,-4.5 -10.9,-7 -17.5,-7 -6.6,0 -13,2.6 -17.5,7 l -22.5,22 c -9.6,9.6 -9.6,25.3 0,34.8 l 9.4,9.4 c 5,4.5 7.8,10.5 7.8,16.9 0,12.8 -10.4,23.4 -22.8,23.4 h -15.199996 c -13.7,0 -25.2,10.7 -25.2,24.299997 v 15.2 15.2 c 0,13.5 11.5,24.3 25.2,24.3 h 15.199996 c 12.4,0 22.8,10.7 22.8,23.4 0,6.3999996 -2.8,12.39999961 -7.8,16.8999996 l -9.4,9.3000004 c -9.6,9.6 -9.6,25.3 0,34.8 l 22.3,22.2 c 4.4,4.5 10.9,7 17.5,7 6.6,0 13,-2.6 17.5,-7 l 9.7,-9.6 c 4.1999998,-4.7 10.1999998,-7.4 16.5999998,-7.4 12.8000002,0 23.5000002,10.4 23.5000002,22.7 v 15.2 c 0,13.500003 10.8,25.100003 24.5,25.100003 h 30.4 c 13.6,0 24.400004,-11.5 24.400004,-25.100003 v -15.2 c 0,-12.3 10.7,-22.7 23.5,-22.7 6.4,0 12.4,2.8 17,7.7 l 9.4,9.4 c 4.5,4.4 10.9,7 17.5,7 6.6,0 13,-2.6 17.5,-7 l 22.3,-22.2 c 9.6,-9.6 9.6,-25.3 0,-34.9 l -9.8,-9.6000004 c -4.8,-4.29999999 -7.5,-10.2 -7.5,-16.4999996 0,-12.8 10.4,-23.4 22.8,-23.4 h 15.2 c 13.6,0 23.3,-10.7 23.3,-24.3 v -15.3 -15.2 c 0.2,-13.599997 -9.5,-24.299997 -23.1,-24.299997 z m -87.7,39.499997 v 0 c 0,44.1 -35.7,79.9999996 -80.000004,79.9999996 -44.3,0 -80,-35.8999996 -80,-79.9999996 v 0 0 c 0,-44.099997 35.7,-79.999997 80,-79.999997 44.300004,0 80.000004,35.9 80.000004,79.999997 z" /><path
         id="path2-8"
         d="m 425.46032,210.19065 -15.17896,-0.79941 c -12.38284,-0.65215 -22.2057,-11.88431 -21.53777,-24.56674 0.33659,-6.39114 3.33789,-12.04111 8.3574,-16.08271 l 10.29133,-9.07131 c 10.19147,-9.07656 11.01718,-24.75482 1.8355,-34.85169 l -21.10684,-23.24224 c -4.1625,-4.625319 -10.51676,-7.563575 -17.10763,-7.910688 -6.59086,-0.347114 -13.11875,1.912692 -17.84393,6.069935 l -9.88136,8.892613 c -4.75674,4.75642 -10.89044,7.13713 -17.38144,6.79527 -12.78229,-0.67319 -22.92051,-11.62155 -22.27362,-23.904523 l 0.80468,-15.278825 c 0.71,-13.481317 -9.56484,-25.638526 -23.14601,-26.353791 L 250.93374,48.287714 C 237.35256,47.57245 225.96269,58.48853 225.24742,72.069708 l -0.79941,15.178963 c -0.64689,12.282978 -11.87905,22.105849 -24.66134,21.432659 -6.39114,-0.3366 -12.14097,-3.34316 -16.18784,-8.26281 l -9.18168,-10.096868 c -4.15724,-4.725181 -10.51676,-7.563576 -17.10763,-7.910689 -6.59086,-0.347114 -13.11875,1.912693 -17.84393,6.069935 l -23.62591,20.786212 c -10.0916,9.08183 -10.91731,24.76009 -1.83023,34.75183 l 8.89262,9.88137 c 4.75641,4.75673 7.23697,10.89569 6.90038,17.28683 -0.67319,12.78229 -11.61628,22.82065 -23.99912,22.1685 l -15.17897,-0.79942 c -13.681039,-0.72052 -25.727869,9.35985 -26.443133,22.94103 l -0.799414,15.17896 -0.799413,15.17897 c -0.710005,13.48131 10.206075,24.87119 23.887114,25.59171 l 15.178966,0.79941 c 12.38284,0.65216 22.2057,11.88432 21.53777,24.56674 -0.33659,6.39114 -3.44828,12.23558 -8.67802,16.46639 l -9.87611,8.79275 c -10.09161,9.08182 -10.91732,24.7601 -1.83024,34.75185 l 21.10158,23.3421 c 4.15724,4.72518 10.51676,7.56357 17.10763,7.91069 6.59086,0.34711 13.11875,-1.9127 17.84393,-6.06994 l 10.19147,-9.07656 c 4.44137,-4.4726 10.57507,-6.85331 16.96621,-6.51671 12.78229,0.67319 22.92051,11.62154 22.27362,23.90451 l -0.79942,15.17897 c -0.71,13.48131 9.46497,25.63326 23.14601,26.35379 l 30.35793,1.59883 c 13.58118,0.71526 24.97105,-10.20082 25.68631,-23.782 l 0.79942,-15.17896 c 0.64689,-12.28298 11.87905,-22.10584 24.66133,-21.43265 6.39115,0.33659 12.23558,3.44828 16.57151,8.58342 l 8.89262,9.88137 c 4.26236,4.63058 10.51676,7.56357 17.10763,7.91069 6.59086,0.34711 13.11875,-1.9127 17.84393,-6.06994 l 23.4367,-20.99645 c 10.09161,-9.08182 10.91732,-24.7601 1.8355,-34.85171 l -9.28155,-10.10212 c -4.5672,-4.5465 -6.95317,-10.58034 -6.62183,-16.87162 0.67319,-12.78228 11.61628,-22.82064 23.99912,-22.16849 l 15.17896,0.79941 c 13.58118,0.71527 23.8305,-9.45977 24.54576,-23.04095 l 0.80468,-15.27883 0.79941,-15.17896 c 0.91499,-13.57066 -8.20884,-24.766 -21.79002,-25.48127 z m -89.65605,34.83293 v 0 c -2.31935,44.03897 -39.85803,78.01171 -84.09672,75.68184 -44.23869,-2.32986 -78.00119,-40.05775 -75.68184,-84.09672 v 0 0 c 2.31935,-44.03896 39.85803,-78.01171 84.09672,-75.68184 44.23869,2.32987 78.00119,40.05775 75.68184,84.09672 z" /></g><g
       style="display:inline"
       id="g1493"
       transform="matrix(5.6178286,0,0,5.0667177,-1243.9863,-571.31738)"><path
         id="path1376-23"
         d="M 307.27461,82.768208 208.02104,180.88665"
         style="display:inline;fill:none;stroke:#000000;stroke-width:7.71021461;stroke-linecap:butt;stroke-linejoin:miter;stroke-miterlimit:4;stroke-dasharray:none;stroke-opacity:1" /><path
         id="path1376-23-7"
         d="M 301.8702,77.305264 202.61663,175.42371"
         style="display:inline;fill:none;stroke:#ffffff;stroke-width:7.71022272;stroke-linecap:butt;stroke-linejoin:miter;stroke-miterlimit:4;stroke-dasharray:none;stroke-opacity:1" /></g></g></svg>